# xmcd
#
# Track frame offsets: 
#        150
#        23329
#        46876
#        64942
#        96221
#        113480
#        133887
#        153447
#        170255
#        194481
#        209547
#        226956
#        245798
#        257655
#        270886
#        283279
#
# Disc length: 4253 seconds
#
# Revision: 4
# Processed by: cddbd v1.5.2PL0 Copyright (c) Steve Scherf et al.
# Submitted via: ExactAudioCopyFreeDBPlugin 1.0
#
DISCID=e1109b10
DTITLE=Various Artist - Americana - CD1: 2 Meter Sessies
DYEAR=2006
DGENRE=Americana
TTITLE0=Bruce Cockburn - If I Had A Rocket Launcher
TTITLE1=Calexico - Stray
TTITLE2=Ted Hawkins - All I Have To Offer You Is Me
TTITLE3=Los Lobos - Kiko And The Lavender Moon
TTITLE4=Ron Sexsmith - Speaking With The Angel
TTITLE5=Lambchop - The Distance From Here To There
TTITLE6=The Jayhawks - Mr. Wilson
TTITLE7=Venice - When I Get Over You
TTITLE8=Eric Anderson - Blue River
TTITLE9=American Music Club - Another Morning
TTITLE10=Randy Newman - I Miss You
TTITLE11=Guy Clark - L.A. Freeway
TTITLE12=John Hiatt - What Do We Do Now
TTITLE13=J.J. Cale - Devil In Disguise
TTITLE14=Chip Taylor - Something About Losing It All
TTITLE15=Ryan Adams - Strawberry Wine
EXTD=J.D. Kroeske presents AMERICANA - 2CD\nCD1: 2 Meter Sessies\nCD2:
EXTD=Originele Opnames
EXTT0=
EXTT1=
EXTT2=
EXTT3=
EXTT4=
EXTT5=
EXTT6=
EXTT7=
EXTT8=
EXTT9=
EXTT10=
EXTT11=
EXTT12=
EXTT13=
EXTT14=
EXTT15=
PLAYORDER=
